<svg xmlns="http://www.w3.org/2000/svg" width="1200" height="420" viewBox="0 0 1200 420">
  <defs>
    <style>
      .ink { fill: #25312d; }
      .green { fill: #2f8f6b; }
      .orange { fill: #e86f2a; }
      .rice { fill: #fff8ea; }
      .brown { fill: #8a5a3b; }
      .word { font-family: "Noto Sans TC", "Microsoft JhengHei", Arial, sans-serif; font-weight: 800; fill: #25312d; }
      .sub { font-family: "Noto Sans TC", "Microsoft JhengHei", Arial, sans-serif; font-weight: 600; fill: #8a5a3b; letter-spacing: 8px; }
    </style>
  </defs>
  <rect width="1200" height="420" fill="#fff8ea"/>
  <g transform="translate(76 64)">
    <rect x="18" y="86" width="244" height="168" rx="42" fill="#fff8ea" stroke="#25312d" stroke-width="12"/>
    <path class="green" d="M57 83c23-42 65-59 110-51 47 9 81 41 92 87-39-31-74-41-107-34-33 8-61 29-95-2z"/>
    <circle class="orange" cx="223" cy="110" r="24"/>
    <path d="M74 160h132M74 204h168" fill="none" stroke="#25312d" stroke-width="7" stroke-linecap="round"/>
    <path d="M6 46l134 94M268 46l-135 94" fill="none" stroke="#25312d" stroke-width="12" stroke-linecap="round"/>
  </g>
  <text class="word" x="390" y="190" font-size="94">Lai家便當</text>
  <text class="sub" x="398" y="260" font-size="34">來甲便當</text>
  <rect x="390" y="296" width="470" height="8" rx="4" fill="#e86f2a"/>
</svg>
